<svg width="122" height="122" viewBox="0 0 122 122" fill="none" xmlns="http://www.w3.org/2000/svg">
<path d="M122 61C122 94.6894 94.6894 122 61 122C27.3106 122 0 94.6894 0 61C0 27.3106 27.3106 0 61 0C94.6894 0 122 27.3106 122 61Z" fill="#25363D"/>
<path d="M60.9999 14.5865C60.9999 13.8272 60.9999 13.4476 61.2436 13.2117C61.4873 12.9759 61.858 12.9882 62.5999 13.0129C72.5945 13.3462 82.251 16.7949 90.2078 22.8972C98.5886 29.3246 104.616 38.3369 107.356 48.5379C110.096 58.7385 109.396 69.5587 105.364 79.3212C101.332 89.0837 94.1934 97.2438 85.0542 102.537C75.915 107.83 65.2852 109.961 54.8121 108.6C44.3393 107.238 34.6077 102.46 27.1253 95.0056C19.6429 87.5512 14.8274 77.8372 13.425 67.368C12.0936 57.4284 13.9092 47.3353 18.595 38.4995C18.9427 37.8439 19.1165 37.5162 19.4423 37.4221C19.7683 37.328 20.0975 37.5169 20.7559 37.8948L50.3407 54.875C50.9695 55.2361 51.2836 55.4164 51.3823 55.6964C51.4815 55.9765 51.3338 56.3557 51.0383 57.1137C50.386 58.7902 50.1635 60.6129 50.4047 62.4132C50.7167 64.7447 51.7892 66.9077 53.4559 68.5682C55.122 70.2281 57.2895 71.2923 59.6217 71.5953C61.954 71.8988 64.3215 71.424 66.3567 70.2452C68.3924 69.0664 69.9823 67.249 70.8799 65.0749C71.778 62.9007 71.9337 60.4913 71.3236 58.2195C70.7134 55.9477 69.3711 53.9405 67.5049 52.5088C66.0639 51.4041 64.3727 50.6893 62.594 50.421C61.7892 50.2999 61.3871 50.2392 61.1935 50.0142C60.9999 49.7892 60.9999 49.4266 60.9999 48.7015V14.5865Z" fill="#EFEFEF"/>
<path d="M43.1391 91.9339C42.7589 92.5925 42.5689 92.9215 42.6643 93.2495C42.7597 93.5769 43.0869 93.7481 43.7412 94.0894C48.3332 96.4848 53.3792 97.9006 58.5588 98.2403C64.2709 98.6146 69.9926 97.6697 75.2814 95.479C80.5703 93.2879 85.2838 89.9091 89.0585 85.6041C92.8327 81.2996 95.5666 76.1841 97.0482 70.6531C98.5299 65.1226 98.7197 59.325 97.6027 53.7098C96.4858 48.0939 94.0925 42.8104 90.6078 38.268C87.1227 33.7255 82.64 30.0457 77.5057 27.5133C72.8503 25.217 67.7726 23.9199 62.5984 23.698C61.8611 23.6664 61.4927 23.6505 61.2458 23.8867C60.9995 24.1229 60.9995 24.5031 60.9995 25.2635V48.7394C60.9995 49.4643 60.9995 49.8267 61.193 50.0516C61.3866 50.2765 61.7886 50.3374 62.5931 50.459C63.6732 50.6227 64.7246 50.9517 65.7099 51.4375C67.1755 52.1606 68.4545 53.2106 69.4494 54.507C70.4437 55.8034 71.1266 57.3109 71.4455 58.9139C71.7643 60.5163 71.7099 62.171 71.2871 63.7489C70.8643 65.3274 70.0843 66.7875 69.0068 68.0161C67.9299 69.2442 66.5847 70.2083 65.0754 70.8338C63.5661 71.4594 61.933 71.7287 60.3027 71.622C59.2065 71.55 58.1312 71.309 57.1139 70.9106C56.3569 70.6136 55.9778 70.4654 55.6979 70.5635C55.418 70.6616 55.2367 70.9752 54.8747 71.6028L43.1391 91.9339Z" fill="#E34A5F"/>
</svg>
