<svg width="256" height="256" viewBox="0 0 256 256" fill="none" xmlns="http://www.w3.org/2000/svg">
<g clip-path="url(#clip0_12_116)">
<path d="M128 4.23026C128 2.20544 128 1.1931 128.65 0.564098C129.3 -0.0647575 130.288 -0.0318968 132.267 0.0341038C158.919 0.922694 184.67 10.1194 205.888 26.3921C228.236 43.5318 244.309 67.5647 251.616 94.7672C258.924 121.969 257.056 150.823 246.304 176.856C235.552 202.889 216.516 224.65 192.145 238.764C167.774 252.881 139.427 258.563 111.499 254.932C83.5717 251.3 57.6208 238.56 37.6677 218.681C17.7147 198.803 4.87334 172.899 1.13361 144.981C-2.41696 118.475 2.42484 91.5605 14.9202 67.9981C15.8473 66.2501 16.3108 65.376 17.1798 65.1251C18.0489 64.8742 18.9269 65.378 20.6827 66.3858L99.5754 111.666C101.252 112.629 102.09 113.11 102.353 113.857C102.618 114.604 102.224 115.615 101.436 117.636C99.6963 122.107 99.1028 126.967 99.7461 131.768C100.578 137.985 103.438 143.753 107.883 148.181C112.326 152.608 118.105 155.446 124.325 156.254C130.544 157.063 136.857 155.797 142.285 152.653C147.713 149.51 151.953 144.664 154.346 138.866C156.742 133.068 157.157 126.643 155.53 120.585C153.903 114.527 150.323 109.174 145.347 105.356C141.504 102.41 136.994 100.504 132.251 99.7889C130.105 99.4659 129.032 99.3042 128.516 98.7041C128 98.1041 128 97.1373 128 95.2036V4.23026Z" fill="#EFEFEF"/>
<path d="M80.3709 210.49C79.3572 212.246 78.8505 213.124 79.1048 213.998C79.3592 214.872 80.2317 215.328 81.9766 216.238C94.2219 222.626 107.678 226.401 121.49 227.307C136.722 228.305 151.98 225.786 166.084 219.944C180.187 214.101 192.757 205.091 202.823 193.611C212.887 182.132 220.178 168.491 224.129 153.741C228.08 138.993 228.586 123.533 225.607 108.559C222.629 93.5835 216.247 79.4943 206.954 67.381C197.66 55.2678 185.707 45.4549 172.015 38.7018C159.601 32.5784 146.06 29.1195 132.262 28.5278C130.296 28.4434 129.314 28.4012 128.656 29.031C127.999 29.6608 127.999 30.6747 127.999 32.7024V95.305C127.999 97.2378 127.999 98.2042 128.515 98.804C129.031 99.4037 130.103 99.5663 132.248 99.8905C135.129 100.327 137.932 101.204 140.56 102.5C144.468 104.428 147.879 107.228 150.532 110.685C153.183 114.142 155.004 118.162 155.855 122.437C156.705 126.71 156.56 131.123 155.432 135.33C154.305 139.54 152.225 143.433 149.352 146.709C146.48 149.984 142.893 152.555 138.868 154.223C134.843 155.891 130.488 156.61 126.141 156.325C123.217 156.133 120.35 155.49 117.637 154.428C115.618 153.636 114.607 153.241 113.861 153.502C113.115 153.764 112.631 154.6 111.666 156.274L80.3709 210.49Z" fill="#E34A5E"/>
</g>
<defs>
<clipPath id="clip0_12_116">
<rect width="256" height="256" fill="white"/>
</clipPath>
</defs>
</svg>
