<svg width="168" height="168" viewBox="0 0 168 168" fill="none" xmlns="http://www.w3.org/2000/svg">
<g clip-path="url(#clip0_12_119)">
<path d="M83.9999 2.77619C83.9999 1.4474 83.9999 0.783053 84.4264 0.370273C84.8529 -0.0424132 85.5016 -0.0208484 86.7999 0.0224646C104.29 0.605602 121.189 6.64094 135.114 17.3199C149.78 28.5678 160.328 44.3394 165.123 62.1911C169.919 80.0422 168.693 98.9775 161.637 116.062C154.581 133.146 142.089 147.426 126.095 156.689C110.101 165.953 91.4992 169.682 73.1713 167.299C54.8439 164.916 37.8136 156.555 24.7194 143.51C11.6252 130.464 3.19807 113.465 0.74387 95.1438C-1.58619 77.7495 1.59124 60.0867 9.79131 44.6238C10.3997 43.4767 10.7039 42.9031 11.2742 42.7384C11.8445 42.5738 12.4207 42.9044 13.573 43.5658L65.3463 73.281C66.4467 73.913 66.9964 74.2285 67.1691 74.7186C67.3427 75.2086 67.0842 75.8724 66.5671 77.1988C65.4256 80.1327 65.0361 83.3224 65.4583 86.4728C66.0043 90.553 67.8812 94.3382 70.7979 97.2441C73.7136 100.149 77.5067 102.011 81.5881 102.542C85.6696 103.073 89.8126 102.242 93.3742 100.179C96.9368 98.116 99.719 94.9356 101.29 91.1308C102.862 87.326 103.134 83.1095 102.066 79.1339C100.999 75.1582 98.6494 71.6456 95.3837 69.1402C92.8618 67.207 89.9022 65.9561 86.7896 65.4866C85.3812 65.2746 84.6775 65.1684 84.3387 64.7746C83.9999 64.3809 83.9999 63.7464 83.9999 62.4774V2.77619Z" fill="#EFEFEF"/>
<path d="M52.7434 138.134C52.0781 139.287 51.7456 139.863 51.9125 140.437C52.0794 141.009 52.652 141.309 53.7971 141.906C61.8331 146.098 70.6636 148.576 79.7278 149.17C89.7241 149.826 99.7371 148.172 108.993 144.338C118.248 140.504 126.497 134.591 133.102 127.057C139.707 119.524 144.492 110.572 147.084 100.893C149.677 91.2145 150.009 81.0687 148.055 71.242C146.1 61.4142 141.912 52.1682 135.814 44.2188C129.715 36.2695 121.87 29.8298 112.885 25.3981C104.738 21.3796 95.8521 19.1097 86.7972 18.7214C85.5069 18.666 84.8622 18.6383 84.4302 19.0516C83.9991 19.465 83.9991 20.1303 83.9991 21.461V62.5439C83.9991 63.8124 83.9991 64.4466 84.3378 64.8402C84.6765 65.2337 85.38 65.3404 86.7879 65.5532C88.6782 65.8397 90.5181 66.4154 92.2422 67.2656C94.8071 68.531 97.0454 70.3685 98.7864 72.6371C100.526 74.9058 101.722 77.5439 102.28 80.3492C102.837 83.1535 102.742 86.0492 102.002 88.8106C101.263 91.5728 99.8976 94.128 98.012 96.2781C96.1273 98.4272 93.7733 100.114 91.132 101.209C88.4906 102.304 85.6328 102.775 82.7797 102.588C80.8614 102.462 78.9795 102.041 77.1994 101.344C75.8745 100.824 75.2111 100.564 74.7213 100.736C74.2315 100.908 73.9142 101.456 73.2807 102.555L52.7434 138.134Z" fill="#E34A5E"/>
</g>
<defs>
<clipPath id="clip0_12_119">
<rect width="168" height="168" fill="white"/>
</clipPath>
</defs>
</svg>
