<svg width="144" height="144" viewBox="0 0 144 144" fill="none" xmlns="http://www.w3.org/2000/svg">
<g clip-path="url(#clip0_12_113)">
<path d="M71.9999 2.37963C71.9999 1.24067 71.9999 0.671223 72.3655 0.317412C72.7311 -0.0363193 73.2871 -0.0178351 74.3999 0.0192902C89.3918 0.519122 103.877 5.69227 115.812 14.8457C128.383 24.4867 137.424 38.0053 141.534 53.3067C145.645 68.6076 144.594 84.8379 138.546 99.4817C132.498 114.125 121.79 126.366 108.081 134.305C94.3726 142.245 78.4278 145.442 62.7183 143.399C47.009 141.357 32.4116 134.19 21.188 123.008C9.96445 111.827 2.74118 97.2557 0.637585 81.5519C-1.35961 66.6425 1.3639 51.5029 8.39253 38.2491C8.91405 37.2658 9.17477 36.7741 9.66357 36.633C10.1524 36.4918 10.6463 36.7752 11.634 37.3421L56.0111 62.8124C56.9543 63.354 57.4255 63.6245 57.5735 64.0445C57.7223 64.4646 57.5007 65.0335 57.0575 66.1704C56.0791 68.6852 55.7453 71.4192 56.1071 74.1196C56.5751 77.6169 58.1839 80.8614 60.6839 83.3521C63.1831 85.8421 66.4343 87.4383 69.9327 87.8928C73.4311 88.348 76.9823 87.6359 80.035 85.8677C83.0886 84.0994 85.4734 81.3734 86.8198 78.1122C88.167 74.8509 88.4006 71.2368 87.4854 67.8291C86.5702 64.4214 84.5566 61.4106 81.7574 59.263C79.5958 57.606 77.059 56.5338 74.3911 56.1314C73.1839 55.9497 72.5807 55.8587 72.2903 55.5211C71.9999 55.1837 71.9999 54.6398 71.9999 53.5521V2.37963Z" fill="#EFEFEF"/>
<path d="M45.2087 118.401C44.6385 119.389 44.3534 119.882 44.4965 120.374C44.6396 120.865 45.1304 121.122 46.1119 121.634C52.9999 125.227 60.5689 127.351 68.3382 127.86C76.9064 128.422 85.489 127.004 93.4222 123.718C101.355 120.432 108.426 115.363 114.088 108.906C119.749 102.449 123.85 94.7759 126.072 86.4794C128.295 78.1837 128.58 69.4873 126.904 61.0644C125.229 52.6406 121.639 44.7154 116.412 37.9017C111.184 31.088 104.46 25.5683 96.7587 21.7697C89.7755 18.3253 82.159 16.3796 74.3977 16.0468C73.2917 15.9993 72.7391 15.9756 72.3688 16.3298C71.9993 16.6841 71.9993 17.2544 71.9993 18.395V53.609C71.9993 54.6962 71.9993 55.2398 72.2896 55.5772C72.5799 55.9145 73.1829 56.0059 74.3897 56.1883C76.0099 56.4339 77.587 56.9274 79.0649 57.6561C81.2633 58.7407 83.1818 60.3157 84.6741 62.2603C86.1656 64.2048 87.19 66.4661 87.6683 68.8706C88.1465 71.2743 88.0649 73.7563 87.4307 76.1232C86.7966 78.4909 85.6266 80.681 84.0103 82.5239C82.3949 84.3661 80.3772 85.8123 78.1132 86.7506C75.8492 87.6888 73.3996 88.0928 70.9541 87.9328C69.3099 87.8248 67.6968 87.4633 66.171 86.8657C65.0354 86.4202 64.4667 86.1978 64.0469 86.345C63.627 86.4922 63.3551 86.9625 62.8121 87.904L45.2087 118.401Z" fill="#E34A5E"/>
</g>
<defs>
<clipPath id="clip0_12_113">
<rect width="144" height="144" fill="white"/>
</clipPath>
</defs>
</svg>
