<svg width="192" height="192" viewBox="0 0 192 192" fill="none" xmlns="http://www.w3.org/2000/svg">
<g clip-path="url(#clip0_12_110)">
<path d="M95.9999 3.17276C95.9999 1.65414 95.9999 0.894882 96.4873 0.423134C96.9748 -0.0485071 97.7161 -0.0238616 99.1998 0.0256389C119.189 0.692082 138.502 7.58961 154.416 19.7941C171.177 32.6489 183.232 50.6736 188.712 71.0755C194.193 91.4767 192.792 113.117 184.728 132.642C176.664 152.167 162.387 168.487 144.109 179.073C125.83 189.66 104.571 193.922 83.6244 191.199C62.6787 188.475 43.2155 178.92 28.2507 164.011C13.286 149.102 3.65495 129.674 0.850154 108.736C-1.81277 88.8566 1.81858 68.6704 11.1901 50.9986C11.8854 49.6876 12.2331 49.0321 12.8848 48.8439C13.5366 48.6557 14.1951 49.0336 15.512 49.7894L74.6815 83.7497C75.9391 84.472 76.5674 84.8325 76.7647 85.3926C76.9631 85.9527 76.6676 86.7112 76.0767 88.2272C74.7722 91.5802 74.327 95.2255 74.8095 98.826C75.4335 103.489 77.5786 107.815 80.9119 111.136C84.2441 114.456 88.5791 116.584 93.2436 117.19C97.9081 117.797 102.643 116.848 106.713 114.49C110.785 112.132 113.965 108.498 115.76 104.149C117.556 99.8011 117.868 94.9823 116.647 90.4387C115.427 85.8951 112.742 81.8807 109.01 79.0173C106.128 76.8079 102.745 75.3784 99.1881 74.8418C97.5785 74.5995 96.7742 74.4782 96.387 74.0281C95.9998 73.5781 95.9999 72.853 95.9999 71.4028V3.17276Z" fill="#EFEFEF"/>
<path d="M60.2782 157.868C59.5179 159.185 59.1379 159.843 59.3287 160.499C59.5194 161.154 60.1738 161.496 61.4825 162.179C70.6665 166.969 80.7585 169.801 91.1176 170.48C102.542 171.229 113.985 169.339 124.563 164.958C135.141 160.576 144.568 153.818 152.117 145.208C159.665 136.599 165.133 126.368 168.097 115.306C171.06 104.245 171.439 92.6498 169.206 81.4193C166.972 70.1876 162.185 59.6207 155.216 50.5357C148.245 41.4508 139.28 34.0911 129.012 29.0263C119.701 24.4337 109.545 21.8395 99.1969 21.3958C97.7222 21.3325 96.9854 21.3008 96.4917 21.7732C95.9991 22.2456 95.9991 23.006 95.9991 24.5268V71.4787C95.9991 72.9283 95.9991 73.6531 96.3861 74.103C96.7732 74.5527 97.5772 74.6746 99.1862 74.9178C101.347 75.2452 103.449 75.9033 105.42 76.8749C108.351 78.3211 110.909 80.4211 112.899 83.0138C114.887 85.6065 116.253 88.6216 116.891 91.8275C117.529 95.0324 117.42 98.3418 116.574 101.498C115.729 104.655 114.169 107.575 112.014 110.032C109.86 112.488 107.17 114.416 104.151 115.667C101.132 116.919 97.8661 117.457 94.6054 117.244C92.4131 117.1 90.2624 116.618 88.2279 115.821C86.7138 115.227 85.9556 114.931 85.3958 115.127C84.836 115.323 84.4735 115.95 83.7495 117.205L60.2782 157.868Z" fill="#E34A5E"/>
</g>
<defs>
<clipPath id="clip0_12_110">
<rect width="192" height="192" fill="white"/>
</clipPath>
</defs>
</svg>
