<svg width="96" height="96" viewBox="0 0 96 96" fill="none" xmlns="http://www.w3.org/2000/svg">
<g clip-path="url(#clip0_12_122)">
<path d="M47.9999 1.5865C47.9999 0.827192 47.9999 0.447563 48.2436 0.211689C48.4873 -0.0241315 48.858 -0.0118087 49.5999 0.0129415C59.5945 0.346163 69.251 3.79493 77.2078 9.89719C85.5886 16.3246 91.6158 25.3369 94.356 35.5379C97.0963 45.7385 96.396 56.5587 92.3641 66.3212C88.3321 76.0837 81.1934 84.2438 72.0542 89.5368C62.915 94.8304 52.2852 96.9613 41.8121 95.5995C31.3393 94.2377 21.6077 89.46 14.1253 82.0056C6.64293 74.5512 1.82741 64.8372 0.425016 54.368C-0.906448 44.4284 0.909228 34.3353 5.59498 25.4994C5.94266 24.8439 6.11647 24.5162 6.44234 24.4221C6.76826 24.328 7.09748 24.5169 7.75594 24.8948L37.3407 41.875C37.9695 42.2361 38.2836 42.4164 38.3823 42.6964C38.4815 42.9765 38.3338 43.3557 38.0383 44.1137C37.386 45.7902 37.1635 47.6129 37.4047 49.4131C37.7167 51.7447 38.7892 53.9077 40.4559 55.5682C42.122 57.2281 44.2895 58.2923 46.6217 58.5953C48.954 58.8988 51.3215 58.424 53.3567 57.2452C55.3924 56.0664 56.9823 54.249 57.8798 52.0749C58.778 49.9007 58.9337 47.4913 58.3236 45.2195C57.7135 42.9477 56.3711 40.9404 54.5049 39.5088C53.0639 38.4041 51.3727 37.6893 49.594 37.421C48.7892 37.2999 48.3871 37.2392 48.1935 37.0142C47.9999 36.7892 47.9999 36.4266 47.9999 35.7015V1.5865Z" fill="#EFEFEF"/>
<path d="M30.139 78.934C29.7589 79.5925 29.5689 79.9215 29.6643 80.2495C29.7596 80.5769 30.0868 80.7481 30.7412 81.0894C35.3332 83.4848 40.3792 84.9006 45.5587 85.2403C51.2709 85.6146 56.9926 84.6697 62.2814 82.4791C67.5702 80.2879 72.2838 76.9092 76.0585 72.6041C79.8326 68.2997 82.5666 63.1841 84.0482 57.6531C85.5298 52.1226 85.7196 46.325 84.6027 40.7098C83.4857 35.0939 81.0924 29.8105 77.6078 25.268C74.1226 20.7255 69.6399 17.0457 64.5057 14.5133C59.8503 12.217 54.7726 10.9199 49.5984 10.698C48.861 10.6664 48.4926 10.6505 48.2458 10.8867C47.9995 11.1229 47.9995 11.5031 47.9995 12.2635V35.7395C47.9995 36.4643 47.9995 36.8267 48.193 37.0516C48.3865 37.2765 48.7885 37.3374 49.593 37.459C50.6732 37.6227 51.7246 37.9518 52.7098 38.4376C54.1754 39.1607 55.4545 40.2107 56.4493 41.507C57.4436 42.8034 58.1266 44.3109 58.4454 45.9139C58.7642 47.5163 58.7099 49.171 58.2871 50.749C57.8643 52.3274 57.0843 53.7875 56.0068 55.0161C54.9298 56.2442 53.5847 57.2084 52.0754 57.8339C50.566 58.4594 48.933 58.7287 47.3026 58.622C46.2065 58.55 45.1311 58.309 44.1139 57.9107C43.3568 57.6136 42.9778 57.4654 42.6978 57.5635C42.4179 57.6616 42.2367 57.9752 41.8747 58.6028L30.139 78.934Z" fill="#E34A5E"/>
</g>
<defs>
<clipPath id="clip0_12_122">
<rect width="96" height="96" fill="white"/>
</clipPath>
</defs>
</svg>
