<svg width="512" height="512" viewBox="0 0 512 512" fill="none" xmlns="http://www.w3.org/2000/svg">
<g clip-path="url(#clip0_11_104)">
<path d="M255.999 8.46053C255.999 4.41087 255.999 2.38619 257.299 1.1282C258.599 -0.129515 260.576 -0.0637936 264.533 0.0682077C317.838 1.84539 369.339 20.2388 411.775 52.7842C456.473 87.0636 488.618 135.129 503.232 189.534C517.847 243.938 514.112 301.646 492.609 353.712C471.105 405.779 433.032 449.299 384.289 477.529C335.547 505.761 278.855 517.126 222.998 509.863C167.143 502.601 115.241 477.119 75.3352 437.362C35.4291 397.605 9.74641 345.798 2.26696 289.962C-4.83418 236.951 4.84942 183.121 29.8401 135.996C31.6944 132.5 32.6214 130.752 34.3594 130.25C36.0976 129.748 37.8535 130.756 41.3652 132.772L199.151 223.332C202.504 225.258 204.179 226.22 204.706 227.714C205.235 229.207 204.447 231.23 202.871 235.272C199.392 244.214 198.205 253.935 199.492 263.536C201.156 275.971 206.876 287.507 215.765 296.363C224.651 305.216 236.211 310.891 248.649 312.507C261.088 314.126 273.715 311.594 284.569 305.307C295.426 299.02 303.906 289.327 308.693 277.732C313.483 266.136 314.313 253.286 311.059 241.17C307.805 229.053 300.646 218.348 290.693 210.713C283.007 204.821 273.988 201.009 264.502 199.578C260.209 198.932 258.065 198.608 257.032 197.408C255.999 196.208 255.999 194.275 255.999 190.407V8.46053Z" fill="#EFEFEF"/>
<path d="M160.742 420.981C158.714 424.493 157.701 426.248 158.21 427.997C158.718 429.743 160.463 430.656 163.953 432.476C188.444 445.252 215.356 452.803 242.98 454.614C273.445 456.611 303.961 451.571 332.168 439.888C360.375 428.202 385.514 410.182 405.645 387.222C425.774 364.264 440.355 336.981 448.257 307.483C456.159 277.987 457.172 247.066 451.215 217.118C445.258 187.167 432.493 158.989 413.909 134.762C395.321 110.536 371.413 90.9098 344.031 77.4036C319.202 65.1568 292.121 58.2389 264.525 57.0555C260.592 56.8869 258.628 56.8024 257.311 58.062C255.997 59.3217 255.997 61.3495 255.997 65.4048V190.61C255.997 194.476 255.997 196.408 257.03 197.608C258.062 198.807 260.206 199.133 264.497 199.781C270.257 200.654 275.865 202.409 281.119 205C288.936 208.856 295.757 214.456 301.063 221.37C306.366 228.284 310.009 236.324 311.709 244.874C313.41 253.42 313.12 262.245 310.865 270.661C308.61 279.079 304.45 286.866 298.703 293.419C292.959 299.969 285.785 305.111 277.736 308.447C269.686 311.783 260.976 313.219 252.281 312.65C246.435 312.266 240.7 310.981 235.274 308.856C231.237 307.272 229.215 306.482 227.722 307.005C226.229 307.528 225.263 309.2 223.332 312.548L160.742 420.981Z" fill="#E34A5E"/>
</g>
<defs>
<clipPath id="clip0_11_104">
<rect width="512" height="512" fill="white"/>
</clipPath>
</defs>
</svg>
