<svg width="1024" height="1024" viewBox="0 0 1024 1024" fill="none" xmlns="http://www.w3.org/2000/svg">
<g clip-path="url(#clip0_12_125)">
<path d="M511.999 16.9211C511.999 8.82175 511.999 4.77238 514.599 2.25639C517.199 -0.25903 521.152 -0.127587 529.066 0.136415C635.675 3.69078 738.678 40.4776 823.55 105.568C912.945 174.127 977.235 270.259 1006.46 379.069C1035.69 487.875 1028.22 603.291 985.217 707.424C942.209 811.557 866.063 898.599 768.579 955.058C671.094 1011.52 557.709 1034.25 445.997 1019.73C334.286 1005.2 230.483 954.238 150.67 874.725C70.8583 795.211 19.4929 691.596 4.53395 579.924C-9.66833 473.902 9.69888 366.242 59.6802 271.992C63.3888 265 65.2428 261.504 68.7187 260.5C72.1952 259.497 75.7069 261.512 82.7304 265.543L398.301 446.665C405.008 450.517 408.359 452.44 409.411 455.427C410.47 458.414 408.894 462.46 405.742 470.545C398.785 488.427 396.411 507.869 398.984 527.072C402.312 551.942 413.752 575.013 431.53 592.725C449.302 610.432 472.422 621.783 497.299 625.015C522.176 628.252 547.429 623.188 569.138 610.614C590.853 598.04 607.811 578.655 617.385 555.464C626.966 532.272 628.627 506.572 622.119 482.339C615.611 458.107 601.292 436.697 581.386 421.425C566.015 409.642 547.975 402.018 529.003 399.156C520.419 397.864 516.129 397.217 514.064 394.816C511.999 392.416 511.999 388.549 511.999 380.814V16.9211Z" fill="#EFEFEF"/>
<path d="M321.484 841.961C317.429 848.986 315.402 852.496 316.419 855.994C317.437 859.486 320.927 861.312 327.906 864.953C376.888 890.504 430.712 905.606 485.96 909.229C546.89 913.222 607.922 903.143 664.336 879.776C720.75 856.403 771.028 820.363 811.291 774.443C851.549 728.529 880.711 673.963 896.515 614.965C912.319 555.974 914.343 494.133 902.429 434.237C890.515 374.334 864.987 317.977 827.817 269.524C790.642 221.071 742.826 181.82 688.061 154.807C638.403 130.314 584.241 116.478 529.05 114.111C521.185 113.774 517.255 113.605 514.622 116.124C511.995 118.643 511.995 122.699 511.995 130.81V381.22C511.995 388.951 511.995 392.817 514.059 395.216C516.124 397.615 520.411 398.265 528.993 399.562C540.515 401.308 551.729 404.818 562.239 410C577.872 417.713 591.515 428.913 602.127 442.74C612.733 456.568 620.018 472.649 623.418 489.747C626.819 506.84 626.239 524.49 621.729 541.321C617.22 558.158 608.9 573.732 597.406 586.838C585.919 599.937 571.571 610.221 555.471 616.894C539.372 623.566 521.953 626.438 504.562 625.301C492.87 624.533 481.399 621.962 470.549 617.713C462.473 614.544 458.43 612.963 455.444 614.01C452.459 615.056 450.525 618.401 446.664 625.096L321.484 841.961Z" fill="#E34A5E"/>
</g>
<defs>
<clipPath id="clip0_12_125">
<rect width="1024" height="1024" fill="white"/>
</clipPath>
</defs>
</svg>
